<svg xmlns="http://www.w3.org/2000/svg" xmlns:xlink="http://www.w3.org/1999/xlink" width="57" height="55" viewBox="0 0 57 55">
    <defs>
        <path id="r1choe7x0a" d="M0.006 0L33.493 0 33.493 33.705 0.006 33.705z"/>
    </defs>
    <g fill="none" fill-rule="evenodd">
        <g>
            <g>
                <g>
                    <g transform="translate(-1587 -658) translate(1530 615) translate(57.66 43)">
                        <mask id="x93912b53b" fill="#fff">
                            <use xlink:href="#r1choe7x0a"/>
                        </mask>
                        <path fill="#00A0C8" d="M24.107 19.922c-.828 1.955-2.358 3.494-4.302 4.327-1.02.417-2.04.609-3.059.609-.16 0-.318 0-.478-.032-2.963-.16-5.672-1.987-6.883-4.904-.828-1.987-.828-4.167 0-6.154.829-1.955 2.358-3.494 4.302-4.327.829-.353 1.689-.577 2.581-.61 1.211-.063 2.39.129 3.537.61 1.944.833 3.474 2.372 4.302 4.327.829 1.987.829 4.167 0 6.154zm6.66-1.154c.191-1.282.191-2.564 0-3.846l2.167-1.571c.51-.417.701-1.09.446-1.699l-1.21-2.98c-.256-.578-.861-.962-1.53-.866l-2.645.417c-.765-1.026-1.657-1.956-2.677-2.725l.383-2.628c.127-.641-.255-1.282-.829-1.539L21.909.113c-.606-.256-1.275-.064-1.69.449l-1.56 2.18c-.797-.129-1.594-.16-2.39-.129-.479 0-.957.064-1.435.128L13.273.561c-.414-.512-1.084-.704-1.689-.448L8.62 1.331c-.573.257-.956.898-.86 1.539l.414 2.66c-1.02.77-1.943 1.667-2.708 2.693l-2.613-.417c-.637-.096-1.275.288-1.53.865l-1.21 2.981c-.256.61-.064 1.282.446 1.7l2.166 1.57c-.19 1.282-.19 2.564 0 3.846L.56 20.338c-.51.417-.702 1.09-.447 1.7l1.211 2.98c.255.577.893.962 1.53.834l2.645-.385c.765 1.026 1.657 1.955 2.677 2.725L7.76 30.82c-.095.64.287 1.282.86 1.538l2.964 1.218c.605.257 1.307.065 1.689-.448l1.561-2.18c.479.064.956.128 1.434.16.797 0 1.594-.032 2.39-.16l1.562 2.18c.287.352.7.577 1.147.577.191 0 .382-.064.542-.129l2.963-1.218c.574-.256.956-.897.829-1.538l-.383-2.66c1.02-.77 1.912-1.667 2.709-2.693l2.613.385c.669.128 1.274-.257 1.53-.834l1.21-2.98c.255-.61.064-1.283-.446-1.7l-2.167-1.57z" mask="url(#x93912b53b)"/>
                    </g>
                    <path fill="#8CCFDC" d="M37.466 45.57c-4.434 0-8.032-3.591-8.032-8.017 0-4.426 3.598-8.018 8.032-8.018 4.433 0 8.032 3.592 8.032 8.018s-3.599 8.018-8.032 8.018zm16.417-11l-2.634-.641c-.322-1.251-.804-2.438-1.446-3.56l1.381-2.278c.354-.577.257-1.283-.225-1.763l-2.248-2.246c-.483-.48-1.19-.577-1.768-.224l-2.28 1.38c-1.125-.642-2.314-1.123-3.567-1.444l-.642-2.63c-.161-.641-.74-1.015-1.382-1.015H35.86c-.642 0-1.22.374-1.381 1.015l-.643 2.63c-1.253.32-2.442.802-3.566 1.443l-2.281-1.379c-.579-.353-1.285-.257-1.767.224l-2.25 2.246c-.481.48-.578 1.186-.224 1.763l1.381 2.278c-.642 1.122-1.124 2.309-1.445 3.56l-2.635.641c-.642.16-1.017.738-1.017 1.38v3.206c0 .642.375 1.22 1.017 1.38l2.635.641c.32 1.25.803 2.437 1.445 3.56l-1.381 2.277c-.354.577-.257 1.283.225 1.764l2.249 2.245c.482.481 1.188.577 1.767.224l2.281-1.379c1.124.642 2.313 1.123 3.566 1.444l.643 2.63c.16.641.739 1.058 1.381 1.058h3.213c.643 0 1.22-.417 1.382-1.058l.642-2.63c1.253-.321 2.442-.802 3.566-1.444l2.282 1.38c.578.352 1.285.256 1.767-.225l2.249-2.245c.481-.481.578-1.187.224-1.764l-1.381-2.277c.642-1.122 1.124-2.31 1.446-3.56l2.634-.641c.643-.16 1.06-.738 1.06-1.38V35.95c0-.641-.417-1.219-1.06-1.379z" transform="translate(-1587 -658) translate(1530 615) translate(57.66 43)"/>
                </g>
            </g>
        </g>
    </g>
</svg>
