<svg xmlns="http://www.w3.org/2000/svg" xmlns:xlink="http://www.w3.org/1999/xlink" width="39" height="46" viewBox="0 0 39 46">
    <defs>
        <path id="p6v23vclaa" d="M0.049 0.067L32.67 0.067 32.67 40.096 0.049 40.096z"/>
    </defs>
    <g fill="none" fill-rule="evenodd">
        <g>
            <g>
                <g>
                    <g transform="translate(-1766 -663) translate(1700 615) translate(66.608 48) translate(0 4.022)">
                        <mask id="yebhewosrb" fill="#fff">
                            <use xlink:href="#p6v23vclaa"/>
                        </mask>
                        <path fill="#BED8FB" d="M32.67 15.435V36.89c0 1.774-1.43 3.212-3.193 3.212H3.242c-1.764 0-3.193-1.438-3.193-3.212V3.28c0-1.775 1.43-3.213 3.193-3.213h14.15L32.67 15.435z" mask="url(#yebhewosrb)"/>
                    </g>
                    <path fill="#DDEAFB" d="M7.32 40.035c-1.77 0-3.206-1.438-3.206-3.212V3.212C4.114 1.438 5.55 0 7.32 0h14.21c2.443 0 15.34 12.92 15.34 15.367v21.456c0 1.774-1.435 3.212-3.206 3.212H7.32z" transform="translate(-1766 -663) translate(1700 615) translate(66.608 48)"/>
                    <path fill="#BED8FB" d="M36.87 15.367v1.36c0-2.861-2.324-5.181-5.191-5.181h-3.16c-1.778 0-3.22-1.439-3.22-3.213V5.181C25.3 2.32 22.974 0 20.107 0h1.361c2.453 0 4.805.972 6.54 2.702l6.155 6.142c1.733 1.73 2.708 4.077 2.708 6.523z" transform="translate(-1766 -663) translate(1700 615) translate(66.608 48)"/>
                    <path fill="#93ADE1" d="M23.604 23.239v-9.392c0-.405-.327-.733-.73-.733h-4.9c-.402 0-.729.328-.729.733v9.392h-2.083c-.65 0-.975.79-.516 1.252l4.655 4.682c.62.624 1.626.624 2.247 0l4.655-4.682c.46-.462.134-1.252-.516-1.252h-2.083zM26.107 31.75H14.742c-.785 0-1.422.64-1.422 1.43v.04c0 .789.637 1.429 1.422 1.429h11.365c.785 0 1.421-.64 1.421-1.43v-.039c0-.79-.636-1.43-1.42-1.43z" transform="translate(-1766 -663) translate(1700 615) translate(66.608 48)"/>
                </g>
            </g>
        </g>
    </g>
</svg>
