<svg xmlns="http://www.w3.org/2000/svg" xmlns:xlink="http://www.w3.org/1999/xlink" width="33" height="35" viewBox="0 0 33 35">
    <defs>
        <path id="t8lbtt3zqa" d="M0 0.307L32.696 0.307 32.696 35 0 35z"/>
    </defs>
    <g fill="none" fill-rule="evenodd">
        <g>
            <g transform="translate(-680 -806) translate(680 806)">
                <mask id="1o0mqh5rxb" fill="#fff">
                    <use xlink:href="#t8lbtt3zqa"/>
                </mask>
                <path fill="#00A5CC" d="M31.919 30.121l-11.27-17.91V3.198h1.434c.388 0 .726-.143 1.009-.429.284-.287.425-.625.425-1.017 0-.39-.14-.73-.425-1.016-.284-.286-.62-.429-1.009-.429H10.612c-.388 0-.724.143-1.008.429-.284.286-.426.626-.426 1.016 0 .392.142.73.426 1.017.284.286.62.43 1.008.43h1.434v9.01L.776 30.121c-.837 1.34-.996 2.49-.482 3.445C.81 34.522 1.86 35 3.443 35h25.81c1.584 0 2.633-.478 3.148-1.434.516-.956.355-2.105-.482-3.445zM8.372 23.435l6.094-9.689.448-.7V3.198h2.867v9.848l.448.7 6.095 9.69H8.372z" mask="url(#1o0mqh5rxb)"/>
            </g>
        </g>
    </g>
</svg>
