<svg xmlns="http://www.w3.org/2000/svg" xmlns:xlink="http://www.w3.org/1999/xlink" width="26" height="35" viewBox="0 0 26 35">
    <defs>
        <path id="up5o308aba" d="M0.046 0L25.954 0 25.954 34.995 0.046 34.995z"/>
    </defs>
    <g fill="none" fill-rule="evenodd">
        <g>
            <g transform="translate(-680 -804) translate(680 804)">
                <mask id="lzmoqscqyb" fill="#fff">
                    <use xlink:href="#up5o308aba"/>
                </mask>
                <path fill="#00A7D0" d="M20.288 8.697C18.94 6.55 17.485 4.46 16.187 2.812 14.136.207 13.55 0 13 0c-.551 0-1.136.207-3.187 2.812-1.298 1.65-2.754 3.739-4.1 5.885-2.117 3.37-5.667 9.62-5.667 13.588C.046 29.296 5.857 35 13 35c7.143 0 12.954-5.704 12.954-12.715 0-3.969-3.55-10.217-5.666-13.588zm-2.03 15.673h-4.213v4.136c0 .566-.468 1.025-1.045 1.025s-1.045-.459-1.045-1.025V24.37H7.742c-.577 0-1.045-.46-1.045-1.025 0-.567.468-1.026 1.045-1.026h4.213v-4.135c0-.567.468-1.026 1.045-1.026s1.045.46 1.045 1.026v4.135h4.213c.577 0 1.045.46 1.045 1.026 0 .566-.468 1.025-1.045 1.025z" mask="url(#lzmoqscqyb)"/>
            </g>
        </g>
    </g>
</svg>
