<svg xmlns="http://www.w3.org/2000/svg" xmlns:xlink="http://www.w3.org/1999/xlink" width="32" height="32" viewBox="0 0 32 32">
    <defs>
        <path id="911q1xs7da" d="M0 0L32 0 32 31.995 0 31.995z"/>
    </defs>
    <g fill="none" fill-rule="evenodd">
        <g>
            <g>
                <path fill="#00A5CC" d="M10.364 7.022c.613.077 1.13-.439 1.052-1.052-.053-.418-.39-.755-.808-.808-.614-.077-1.13.439-1.052 1.052.053.417.39.755.808.808z" transform="translate(-680 -809) translate(680 809)"/>
                <g transform="translate(-680 -809) translate(680 809)">
                    <mask id="i27myga5pb" fill="#fff">
                        <use xlink:href="#911q1xs7da"/>
                    </mask>
                    <path fill="#00A5CC" d="M8.89 10.938c.613.078 1.129-.438 1.051-1.052-.052-.417-.39-.755-.808-.808-.613-.077-1.129.439-1.051 1.052.052.418.39.756.808.808z" mask="url(#i27myga5pb)"/>
                    <path fill="#00A5CC" d="M27.314 4.686C24.292 1.664 20.274 0 16 0S7.708 1.664 4.686 4.686C1.664 7.708 0 11.726 0 16s1.664 8.292 4.686 11.314C7.708 30.336 11.726 32 16 32s8.292-1.664 11.314-4.686C30.336 24.292 32 20.274 32 16s-1.664-8.292-4.686-11.314zm.236 19.459c-3.224 4.492-8.502 6.679-13.959 5.781-2.068-.34-4.034-1.154-5.736-2.376-4.492-3.224-6.678-8.502-5.782-13.958.34-2.068 1.155-4.034 2.377-5.737 3.223-4.492 8.502-6.679 13.959-5.781 2.068.34 4.034 1.154 5.736 2.376 4.492 3.224 6.678 8.501 5.782 13.958-.34 2.068-1.154 4.034-2.377 5.736z" mask="url(#i27myga5pb)"/>
                </g>
                <path fill="#00A5CC" d="M23.47 9.126c.153-2.398-1.832-4.384-4.23-4.23-1.983.126-3.585 1.727-3.712 3.71-.153 2.399 1.832 4.384 4.231 4.23 1.982-.126 3.584-1.727 3.71-3.71zm-6.062-.032c-.142-1.338.98-2.461 2.32-2.32.975.104 1.76.888 1.863 1.864.142 1.339-.982 2.462-2.32 2.32-.976-.104-1.76-.888-1.863-1.864zM26.61 15.86c-.828 0-1.503-.671-1.506-1.499-.002-.392-.23-.755-.601-.885-.66-.23-1.274.252-1.274.88 0 1.854 1.502 3.365 3.354 3.38.49.003.918-.366.96-.855.048-.555-.388-1.02-.934-1.02zM10.125 15.05c-.64-.64-1.512-.964-2.427-.896-.637.048-1.247.296-1.737.705-1.411 1.18-1.48 3.293-.21 4.565l4.506 4.504c.602.603 1.394.905 2.186.905.857 0 1.715-.354 2.332-1.06 1.046-1.197.942-3.13-.182-4.254l-4.468-4.468zm3.179 7.552c-.475.475-1.247.475-1.722 0l-4.504-4.504c-.288-.288-.414-.695-.332-1.11.03-.15.089-.292.174-.419.236-.35.612-.549 1.019-.549.325 0 .63.127.86.357l4.505 4.505c.474.474.474 1.246 0 1.72zM23.046 20.518c-.354.354-.365.922-.034 1.29.29.323.296.81-.011 1.116l-.023.022c-.303.304-.798.317-1.106.017-.538-.522-1.262-.786-2.02-.728-.633.048-1.221.339-1.67.787l-.052.053c-.448.448-.737 1.037-.785 1.67-.058.77.216 1.505.756 2.044.183.183.423.275.663.275.378 0 .755-.227.911-.68.112-.324.003-.675-.242-.915-.175-.172-.253-.414-.207-.663.027-.148.107-.283.214-.39l.08-.08c.136-.136.316-.226.508-.233.206-.008.4.069.546.214 1.016 1.016 2.67 1.016 3.686 0l.112-.113c1.017-1.016 1.017-2.67 0-3.686-.366-.366-.96-.366-1.326 0z" transform="translate(-680 -809) translate(680 809)"/>
            </g>
        </g>
    </g>
</svg>
