<svg xmlns="http://www.w3.org/2000/svg" xmlns:xlink="http://www.w3.org/1999/xlink" width="54" height="54" viewBox="0 0 54 54">
    <defs>
        <path id="enoihelfta" d="M0 0L27.422 0 27.422 53.992 0 53.992z"/>
    </defs>
    <g fill="none" fill-rule="evenodd">
        <g>
            <g>
                <g>
                    <g transform="translate(-480 -475) translate(390 428) translate(90 47)">
                        <mask id="3rjuc460cb" fill="#fff">
                            <use xlink:href="#enoihelfta"/>
                        </mask>
                        <path fill="#FFF" d="M25.84 54h-3.164c-.874 0-1.582-.708-1.582-1.582v-5.16c0-7.031-3.438-13.635-9.197-17.666C4.447 24.38 0 15.836 0 6.742v-5.16C0 .708.708 0 1.582 0h3.164c.874 0 1.582.708 1.582 1.582v5.16c0 7.031 3.438 13.635 9.198 17.666 7.449 5.213 11.896 13.756 11.896 22.85v5.16c0 .874-.708 1.582-1.582 1.582z" mask="url(#3rjuc460cb)"/>
                        <path fill="#FFF" d="M20.872 24.697c4.179-4.97 6.55-11.315 6.55-17.954V1.582C27.422.708 26.714 0 25.84 0h-3.164c-.874 0-1.582.708-1.582 1.582v5.16c0 5.18-1.868 10.129-5.156 13.987.448.382.914.745 1.402 1.086 1.256.88 2.435 1.844 3.532 2.882zM6.55 29.302C2.371 34.273 0 40.618 0 47.257v5.161C0 53.292.708 54 1.582 54h3.164c.874 0 1.582-.708 1.582-1.582v-5.16c0-5.181 1.869-10.129 5.155-13.987-.447-.382-.914-.745-1.4-1.086-1.257-.88-2.436-1.844-3.533-2.883z" mask="url(#3rjuc460cb)"/>
                    </g>
                    <path fill="#FFF" d="M9.492 5.624L17.93 5.624 17.93 2.46 9.492 2.46zM9.492 51.54L17.93 51.54 17.93 48.376 9.492 48.376zM17.254 42.33h-7.086c-.288 1.031-.486 2.09-.59 3.163h8.265c-.104-1.076-.302-2.135-.589-3.164zM9.578 8.507c.104 1.076.3 2.134.588 3.164h7.088c.288-1.032.486-2.09.59-3.164H9.577zM11.236 14.553c.523 1.113 1.155 2.174 1.891 3.164h1.167c.738-.993 1.37-2.054 1.891-3.164h-4.949zM16.186 39.447c-.523-1.114-1.156-2.174-1.891-3.164h-1.167c-.738.993-1.37 2.054-1.891 3.164h4.949zM50.836 46.512c-1.745 0-3.164-1.42-3.164-3.164 0-1.745 1.42-3.164 3.164-3.164 1.745 0 3.164 1.42 3.164 3.164 0 1.744-1.42 3.164-3.164 3.164zM50.836 13.816c-1.745 0-3.164-1.42-3.164-3.164 0-1.744 1.42-3.164 3.164-3.164 1.745 0 3.164 1.42 3.164 3.164 0 1.745-1.42 3.164-3.164 3.164zM54 27c0 1.747-1.417 3.164-3.164 3.164S47.672 28.747 47.672 27s1.417-3.164 3.164-3.164S54 25.253 54 27zM47.042 38.286l-7.428-5.199c-.265-.186-.582-.286-.907-.286H27.012c.54 1.026 1.022 2.082 1.445 3.164h9.751l6.854 4.798c.442-.984 1.127-1.836 1.98-2.477zM39.614 20.913l7.428-5.2c-.853-.64-1.538-1.492-1.98-2.476l-6.854 4.798h-9.751c-.423 1.082-.905 2.138-1.445 3.164h11.695c.325 0 .642-.1.907-.286zM44.708 25.418H24.341c-.407.54-.832 1.068-1.274 1.582.442.514.867 1.041 1.274 1.582h20.367c-.13-.506-.2-1.036-.2-1.582s.07-1.076.2-1.582z" transform="translate(-480 -475) translate(390 428) translate(90 47)"/>
                </g>
            </g>
        </g>
    </g>
</svg>
