<svg xmlns="http://www.w3.org/2000/svg" xmlns:xlink="http://www.w3.org/1999/xlink" width="57" height="69" viewBox="0 0 57 69">
    <defs>
        <path id="dvx55n5yfa" d="M0.075 0.104L50.625 0.104 50.625 61.769 0.075 61.769z"/>
    </defs>
    <g fill="none" fill-rule="evenodd">
        <g>
            <g>
                <g transform="translate(-1388 -928) translate(1388 928) translate(0 6.196)">
                    <mask id="2dqhlambzb" fill="#fff">
                        <use xlink:href="#dvx55n5yfa"/>
                    </mask>
                    <path fill="#BED8FB" d="M50.625 23.778V56.83c0 2.733-2.215 4.949-4.948 4.949H5.024C2.29 61.78.075 59.564.075 56.83V5.053c0-2.734 2.216-4.95 4.949-4.95H26.95l23.674 23.675z" mask="url(#2dqhlambzb)"/>
                </g>
                <path fill="#DDEAFB" d="M11.323 61.676c-2.733 0-4.948-2.216-4.948-4.95V4.949C6.375 2.215 8.59 0 11.323 0H33.25c3.77 0 23.675 19.904 23.675 23.674v33.053c0 2.733-2.216 4.949-4.949 4.949H11.323z" transform="translate(-1388 -928) translate(1388 928)"/>
                <path fill="#BED8FB" d="M56.925 23.674v2.094c0-4.408-3.574-7.981-7.98-7.981h-4.858c-2.733 0-4.949-2.216-4.949-4.95V7.982c0-4.407-3.574-7.981-7.98-7.981h2.092c3.77 0 7.386 1.498 10.051 4.163l9.461 9.461c2.665 2.665 4.163 6.28 4.163 10.05z" transform="translate(-1388 -928) translate(1388 928)"/>
                <path fill="#93ADE1" d="M36.576 35.8V21.332c0-.624-.506-1.13-1.13-1.13h-7.593c-.624 0-1.13.506-1.13 1.13V35.8h-3.228c-1.007 0-1.51 1.218-.8 1.93l7.214 7.213c.961.96 2.52.96 3.481 0l7.214-7.214c.712-.711.207-1.93-.8-1.93h-3.228zM40.456 48.913H22.844c-1.217 0-2.203.986-2.203 2.203v.06c0 1.216.986 2.202 2.203 2.202h17.612c1.216 0 2.202-.986 2.202-2.202v-.06c0-1.217-.986-2.203-2.202-2.203z" transform="translate(-1388 -928) translate(1388 928)"/>
            </g>
        </g>
    </g>
</svg>
