<svg xmlns="http://www.w3.org/2000/svg" xmlns:xlink="http://www.w3.org/1999/xlink" width="17" height="35" viewBox="0 0 17 35">
    <defs>
        <path id="o43imhm47a" d="M0 0L16.692 0 16.692 34.914 0 34.914z"/>
    </defs>
    <g fill="none" fill-rule="evenodd">
        <g>
            <g transform="translate(-680 -804) translate(680 804)">
                <mask id="6rn5xqiowb" fill="#fff">
                    <use xlink:href="#o43imhm47a"/>
                </mask>
                <path fill="#00A5CC" d="M12.749 24.15c.559.98 1.013 1.976 1.373 3.02H2.67c.36-1.044.815-2.04 1.374-3.02h8.705zm-4.353-5.67c1.183 1.304 2.37 2.657 3.403 4.162H4.992c1.035-1.505 2.222-2.858 3.404-4.162zm-3.403-6.405H11.8c-1.034 1.505-2.22 2.858-3.403 4.162-1.183-1.304-2.37-2.657-3.404-4.162zM2.67 7.547h11.453c-.36 1.044-.815 2.04-1.374 3.019H4.044c-.56-.978-1.013-1.975-1.374-3.019zM1.708 3.02h13.377c-.099 1.066-.268 2.063-.51 3.019H2.217c-.243-.956-.411-1.953-.51-3.02zm13.377 28.68H1.708c.098-1.067.267-2.064.51-3.02h12.356c.243.956.412 1.953.51 3.02zM2.963 23.01C2.06 24.514 1.39 26.053.917 27.714v.001c-.423 1.462-.676 2.996-.775 4.69v.001c-.032.506-.048 1.02-.048 1.556 0 .417.338.755.755.755s.755-.338.755-.755c0-.26.015-.504.022-.754h13.54c.008.25.023.494.023.754 0 .417.338.755.754.755.417 0 .755-.338.755-.755 0-.536-.016-1.05-.047-1.556-.1-1.695-.352-3.23-.774-4.69v-.002c-.474-1.661-1.143-3.2-2.047-4.703v-.002c-1.284-2.147-2.859-3.936-4.416-5.65 1.557-1.714 3.132-3.504 4.415-5.651l.001-.002c.904-1.503 1.573-3.042 2.046-4.703l.001-.001c.422-1.462.675-2.996.774-4.69V2.31c.031-.506.047-1.02.047-1.556 0-.417-.338-.755-.755-.755-.416 0-.754.338-.754.755 0 .26-.015.504-.023.754H1.626c-.007-.25-.022-.494-.022-.754C1.604.338 1.266 0 .849 0S.094.338.094.755c0 .536.016 1.05.047 1.556.1 1.695.353 3.23.774 4.69l.001.002c.473 1.661 1.143 3.2 2.046 4.703l.001.002c1.284 2.147 2.858 3.936 4.415 5.65-1.557 1.714-3.131 3.504-4.415 5.651v.002z" mask="url(#6rn5xqiowb)"/>
            </g>
        </g>
    </g>
</svg>
