<svg xmlns="http://www.w3.org/2000/svg" xmlns:xlink="http://www.w3.org/1999/xlink" width="100" height="31" viewBox="0 0 100 31">
    <defs>
        <path id="l0yxii0sva" d="M0.198 0.156L73.508 0.156 73.508 9.32 0.198 9.32z"/>
        <path id="ojt73b0mcc" d="M0 0.331L19.549 0.331 19.549 29.655 0 29.655z"/>
    </defs>
    <g fill="none" fill-rule="evenodd">
        <g>
            <g>
                <path fill="#FFF" fill-opacity=".1" d="M0 0H100V30H0z" transform="translate(-940 -1184) translate(940 1184)"/>
                <g>
                    <g transform="translate(-940 -1184) translate(940 1184) translate(1) translate(24.483 7.945)">
                        <mask id="8bg56hvbhb" fill="#fff">
                            <use xlink:href="#l0yxii0sva"/>
                        </mask>
                        <path fill="#231F20" d="M68.927 1.06c-.596 0-1.08.486-1.08 1.085 0 .6.484 1.085 1.08 1.085.596 0 1.08-.485 1.08-1.085s-.484-1.085-1.08-1.085zM12.424 3.411c.491-.722.758-1.446.758-2.327v-.6H10.1c-.358 0-.69-.063-1.005-.238l-.496.911c.458.254.982.368 1.5.368h1.706C11.67 3.038 10.43 3.943 8.598 4.73l.533.91c1.307-.489 2.576-1.174 3.293-2.23zm.408 2.846c-.63 0-1.142.462-1.142 1.033 0 .57.512 1.033 1.142 1.033.632 0 1.144-.462 1.144-1.033 0-.57-.512-1.033-1.144-1.033zM15.298.246H13.97V5.26h1.327V3.343h.997V2.302h-.997V.246zM12.833 5.26c1.427 0 2.585.909 2.585 2.03 0 1.121-1.158 2.03-2.585 2.03-1.428 0-2.585-.909-2.585-2.03 0-1.121 1.157-2.03 2.585-2.03zM29.34 2.642l-1.168.451c.158.066.232.226.235.318.018.52-.418.89-.997.89-.58 0-.967-.313-.967-.801.027-.86 1.002-.968 1.48-.968h1.928v.811h1.049V5.26h1.327V.246h-1.327V2.4h-.731v-.811h-5.153v.943h.57c-.266.206-.456.578-.456 1.084 0 1.096 1.036 1.644 2.28 1.644 1.243 0 2.249-.56 2.249-1.644 0-.277-.109-.81-.319-.974zm-2.113 6.523h5V5.56h-5v3.605zm1.328-1.042h2.345V6.606h-2.345v1.517zm.601-6.687h-2.207c-.52 0-1.044-.115-1.501-.368l.496-.912c.316.176.647.238 1.005.238h2.207v1.042zm6.204 7.73h5V5.56h-5v3.605zm.14-5.814c-.336.658-1.467 1.529-2.156 1.908l-.685-.907c.586-.34 1.034-.737 1.418-1.172.478-.668.685-1.418.685-2.175v-.76h1.354l-.001.76c0 .38-.045.86-.13 1.234l2.46 1.994-.793 1.003L35.5 3.352zm3.533 1.908h1.327V.246h-1.327V5.26zm-2.346 2.863h2.346V6.606h-2.346v1.517zm8.866-.42L43.577 5.23c-.626 1.13-1.47 1.998-1.987 2.444l-.754-.91c.41-.37 1.086-1.175 1.454-1.903.423-.838.634-1.767.634-2.717v-1.9h1.371v1.629c0 .59-.074 1.662-.176 2.002l2.395 2.813-.962 1.014zM48.014.246h-1.328v8.92h1.328V3.342h1.218V2.302h-1.218V.246zm6.562 5.014c-1.428 0-2.585.909-2.585 2.03 0 1.121 1.157 2.03 2.585 2.03s2.585-.909 2.585-2.03c0-1.121-1.157-2.03-2.585-2.03zM57.079.246h-1.327v1.252h-1.25v1.006h1.25V3.3h-1.25v.62h-.565V1.525h.386V.483h-3.33c-.357 0-.689-.062-1.005-.237l-.496.911c.457.254.982.368 1.501.368h1.623V3.92h-.978V1.96h-1.255v1.961h-.736v1.042h4.996v-.656h1.11v.953h1.326V.246zm-2.503 6.01c.63 0 1.142.463 1.142 1.034 0 .57-.511 1.033-1.142 1.033-.63 0-1.143-.462-1.143-1.033 0-.57.512-1.033 1.143-1.033zm9.97-6.01H63.22v8.92h1.327V3.342h1.11V2.302h-1.11V.246zm-3.829 1.279H59.22c-.52 0-1.044-.114-1.501-.368l.496-.911c.316.175.647.237 1.005.237h3.02c-.032.926-.173 2.058-.364 2.808-.544 2.133-1.657 3.492-3.55 4.607l-.695-.926c1.741-1.05 3.041-2.51 3.086-5.447zm-41.664 3.32h3.042V3.343h-3.042v1.502zm0-3.066c0-.59-.094-1.1-.416-1.619l-1.209.477c.246.397.298.762.298 1.21v4.04h2.17v1.72h-3.473v1.041h8.302V7.607h-3.501v-1.72h2.198V.246h-1.327v2.056h-3.042v-.523zM3.91 5.576H2.583v3.59l5.109-.002V8.123H3.91V5.576zm.115-2.165C3.308 4.467 2.038 5.152.732 5.641l-.534-.91c1.832-.788 3.073-1.693 3.207-3.206H1.699c-.52 0-1.043-.114-1.5-.368L.693.246c.317.175.647.237 1.005.237h3.083v.601c0 .439-.066.838-.192 1.218h1.64V.246h1.327V6.58H6.23V3.343H4.07c-.014.023-.03.046-.045.068zm64.706 2.74h.995v1.972h3.782v1.042H68.4V6.487c-.29.276-.602.53-.902.756l-.698-.98c.488-.37 1.13-.91 1.278-1.509h-1.983v-1.04h1.4c-.609-.358-1.005-.937-1.005-1.59C66.49 1.039 67.58.16 68.926.16c1.346 0 2.437.88 2.437 1.964 0 .653-.395 1.232-1.005 1.59h1.772V.246h1.327v7.099H72.13v-.901H70.65V5.404h1.481v-.65h-2.55c-.139.497-.457.968-.849 1.397z" mask="url(#8bg56hvbhb)"/>
                    </g>
                    <path fill="#939597" d="M96.621 19.583h1.34v.263h-.904v.704h.857v.262h-.857v.788h.934v.276h-1.37v-2.293zm-.256 2.187c-.074.029-.165.06-.275.092-.11.034-.234.05-.374.05-.181 0-.335-.033-.462-.098-.126-.067-.229-.157-.309-.27-.08-.113-.138-.244-.174-.393-.037-.148-.055-.303-.055-.465 0-.153.016-.298.048-.435s.085-.258.16-.363c.074-.104.17-.187.29-.249.12-.062.266-.092.439-.092.272 0 .475.059.607.179s.197.28.197.482h-.495c0-.044-.004-.093-.013-.145-.009-.052-.025-.1-.05-.144-.024-.045-.059-.081-.103-.11-.044-.029-.1-.043-.17-.043-.097 0-.175.03-.234.09-.058.059-.104.132-.136.219-.032.086-.054.179-.065.277-.011.1-.016.186-.016.261 0 .045 0 .1.002.168.003.067.01.14.022.216.013.077.032.152.057.228.026.075.061.143.108.204.046.061.105.111.174.15.07.039.156.058.258.058.073 0 .14-.009.2-.027.06-.018.113-.039.16-.063.048-.024.09-.049.125-.075l.084-.061v.36zm-2.381.106h.435v-2.293h-.435v2.293zm-2.112-2.293l.781 2.293h.449l.794-2.293h-.385l-.595 1.768h-.007l-.585-1.768h-.452zm-1.075 1.047h.086c.078 0 .149-.006.213-.019.065-.012.12-.033.166-.064.047-.031.084-.073.11-.127.027-.053.04-.122.04-.206 0-.09-.015-.162-.045-.214-.03-.052-.07-.091-.118-.116-.049-.026-.105-.042-.17-.049-.064-.006-.129-.01-.196-.01h-.086v.805zm-.435-1.047h.521c.127 0 .248.006.364.02.117.013.22.04.308.083.089.042.16.102.213.181.053.079.08.183.08.314 0 .089-.016.164-.047.226-.03.062-.07.114-.116.154-.047.041-.099.074-.155.097-.057.023-.11.041-.16.054v.008c.083.015.15.04.203.075.053.034.093.075.123.122.03.048.053.102.07.161.017.06.032.123.045.19l.13.608h-.436l-.083-.432c-.02-.104-.04-.192-.063-.266-.022-.073-.05-.132-.085-.178-.034-.045-.078-.078-.131-.098-.053-.02-.123-.03-.21-.03h-.136v1.004h-.435v-2.293zm-1.63 0h1.34v.263h-.905v.704h.858v.262h-.858v.788h.934v.276h-1.369v-2.293zm-.407.382c-.02-.01-.051-.022-.094-.04-.044-.018-.094-.035-.151-.053-.058-.018-.12-.033-.187-.045-.066-.012-.132-.018-.2-.018-.092 0-.168.021-.225.065-.058.043-.087.1-.087.17 0 .076.028.14.084.195.055.055.124.106.207.155.083.048.173.097.27.146.096.049.185.105.269.168.083.063.152.137.208.22.055.085.083.186.083.303 0 .125-.022.23-.067.316-.044.087-.105.157-.181.211-.076.055-.168.094-.274.118-.106.025-.22.037-.343.037-.068 0-.135-.005-.2-.013l-.182-.03c-.055-.011-.104-.022-.146-.034-.042-.01-.074-.02-.093-.026v-.406c.044.027.093.055.146.085.053.03.11.056.168.08.059.023.12.043.184.058.065.015.129.023.193.023.036 0 .074-.004.116-.013.042-.009.082-.023.118-.045.037-.02.067-.05.09-.086.023-.037.035-.082.035-.135 0-.086-.026-.16-.08-.22-.053-.062-.12-.118-.2-.169-.082-.05-.169-.1-.263-.15-.094-.048-.182-.104-.263-.167-.081-.064-.148-.137-.201-.22-.054-.083-.08-.185-.08-.307 0-.186.067-.332.201-.436.134-.104.325-.155.574-.155.06 0 .12.002.18.008.059.005.115.01.165.018.052.006.096.013.135.02l.091.016v.356zm-3.436-.12h-.553v-.262h1.54v.263h-.552v2.03h-.435v-2.03zm-2.425-.262h.476l.887 1.702h.006v-1.702h.357v2.293h-.433l-.93-1.785h-.007v1.785h-.356v-2.293zm-1.63 0h1.34v.263h-.904v.704h.857v.262h-.857v.788h.934v.276h-1.37v-2.293zm-2.793 0h.539l.662 1.871h.006l.645-1.871h.552v2.293h-.386v-1.964h-.007l-.675 1.964h-.332l-.674-1.917h-.007v1.917h-.323v-2.293zm-.409.382c-.02-.01-.052-.022-.095-.04-.043-.018-.094-.035-.151-.053-.058-.018-.12-.033-.186-.045-.067-.012-.134-.018-.2-.018-.093 0-.168.021-.226.065-.058.043-.087.1-.087.17 0 .076.028.14.084.195.055.055.124.106.208.155.082.048.172.097.268.146.097.049.187.105.27.168.083.063.152.137.208.22.055.085.082.186.082.303 0 .125-.022.23-.066.316-.044.087-.105.157-.181.211-.076.055-.168.094-.274.118-.106.025-.22.037-.342.037-.07 0-.136-.005-.202-.013l-.18-.03c-.056-.011-.105-.022-.147-.034-.042-.01-.073-.02-.093-.026v-.406c.044.027.093.055.146.085.053.03.11.056.168.08.059.023.12.043.184.058.065.015.129.023.194.023.035 0 .074-.004.116-.013.042-.009.08-.023.117-.045.037-.02.067-.05.09-.086.024-.037.036-.082.036-.135 0-.086-.027-.16-.08-.22-.054-.062-.12-.118-.202-.169-.08-.05-.168-.1-.262-.15-.094-.048-.182-.104-.263-.167-.081-.064-.148-.137-.2-.22-.054-.083-.08-.185-.08-.307 0-.186.066-.332.2-.436.134-.104.326-.155.574-.155.06 0 .12.002.18.008.06.005.114.01.165.018.051.006.096.013.135.02l.092.016v.356zm-1.627 0c-.02-.01-.052-.022-.095-.04-.043-.018-.093-.035-.15-.053-.058-.018-.12-.033-.187-.045-.066-.012-.133-.018-.2-.018-.093 0-.168.021-.226.065-.057.043-.086.1-.086.17 0 .076.028.14.083.195.056.055.125.106.208.155.083.048.173.097.27.146.096.049.185.105.269.168.082.063.151.137.207.22.056.085.084.186.084.303 0 .125-.023.23-.067.316-.045.087-.105.157-.182.211-.076.055-.167.094-.274.118-.106.025-.22.037-.342.037-.068 0-.136-.005-.2-.013-.067-.01-.127-.02-.182-.03-.056-.011-.104-.022-.146-.034-.043-.01-.073-.02-.094-.026v-.406l.147.085c.053.03.109.056.168.08.058.023.12.043.184.058.065.015.128.023.193.023.035 0 .074-.004.116-.013.042-.009.081-.023.119-.045.036-.02.065-.05.089-.086.023-.037.035-.082.035-.135 0-.086-.027-.16-.08-.22-.053-.062-.12-.118-.2-.169-.082-.05-.17-.1-.263-.15-.095-.048-.182-.104-.263-.167-.08-.064-.148-.137-.201-.22-.054-.083-.08-.185-.08-.307 0-.186.067-.332.201-.436.134-.104.325-.155.574-.155.059 0 .119.002.179.008.06.005.115.01.166.018.05.006.096.013.135.02l.091.016v.356zm-2.846-.382h1.34v.263h-.905v.704h.858v.262h-.858v.788h.935v.276h-1.37v-2.293zm-.407.382c-.02-.01-.051-.022-.095-.04-.043-.018-.093-.035-.15-.053-.058-.018-.12-.033-.187-.045-.066-.012-.133-.018-.2-.018-.093 0-.168.021-.226.065-.057.043-.086.1-.086.17 0 .076.028.14.083.195.055.055.125.106.208.155.083.048.173.097.27.146.096.049.185.105.268.168.084.063.153.137.208.22.056.085.084.186.084.303 0 .125-.023.23-.067.316-.045.087-.105.157-.181.211-.077.055-.168.094-.274.118-.107.025-.22.037-.343.037-.069 0-.135-.005-.2-.013-.067-.01-.127-.02-.182-.03-.055-.011-.104-.022-.146-.034-.042-.01-.073-.02-.094-.026v-.406l.147.085c.053.03.11.056.168.08.058.023.12.043.184.058.064.015.129.023.193.023.035 0 .074-.004.116-.013.042-.009.082-.023.119-.045.036-.02.066-.05.09-.086.022-.037.034-.082.034-.135 0-.086-.027-.16-.08-.22-.053-.062-.12-.118-.2-.169-.082-.05-.17-.1-.263-.15-.095-.048-.182-.104-.263-.167-.08-.064-.148-.137-.201-.22-.053-.083-.08-.185-.08-.307 0-.186.067-.332.201-.436.135-.104.325-.155.574-.155.06 0 .12.002.18.008.059.005.115.01.165.018.05.006.096.013.135.02l.091.016v.356zm-1.626 0c-.02-.01-.052-.022-.095-.04-.043-.018-.094-.035-.151-.053-.058-.018-.12-.033-.186-.045-.067-.012-.133-.018-.2-.018-.093 0-.168.021-.225.065-.058.043-.087.1-.087.17 0 .076.027.14.083.195.056.055.125.106.208.155.083.048.172.097.269.146.096.049.186.105.269.168.083.063.153.137.208.22.055.085.083.186.083.303 0 .125-.022.23-.067.316-.044.087-.104.157-.181.211-.076.055-.168.094-.273.118-.107.025-.221.037-.344.037-.068 0-.135-.005-.2-.013l-.182-.03c-.055-.011-.104-.022-.146-.034-.042-.01-.073-.02-.093-.026v-.406l.146.085c.053.03.11.056.168.08.06.023.12.043.185.058.064.015.128.023.192.023.036 0 .075-.004.117-.013.042-.009.081-.023.118-.045.037-.02.067-.05.09-.086.023-.037.035-.082.035-.135 0-.086-.027-.16-.08-.22-.053-.062-.12-.118-.201-.169-.08-.05-.169-.1-.263-.15-.094-.048-.182-.104-.262-.167-.081-.064-.149-.137-.201-.22-.054-.083-.08-.185-.08-.307 0-.186.067-.332.2-.436.135-.104.326-.155.574-.155.06 0 .12.002.18.008.06.005.115.01.166.018.05.006.096.013.134.02l.092.016v.356zm-2.73 1.017h.631l-.309-1.013h-.006l-.316 1.013zm.123-1.4h.445l.798 2.294H69.3l-.2-.651h-.78l-.207.651h-.385l.79-2.293zm-2.154 1.76l.32.434h-.42l-.153-.209c-.195.16-.423.24-.685.24-.232 0-.406-.08-.522-.24-.097-.13-.131-.276-.102-.435.027-.153.107-.292.242-.42.067-.06.165-.138.296-.228l-.226-.416c-.051-.148-.023-.291.083-.429.1-.13.275-.188.525-.173.085.005.16.034.227.087.064.048.109.109.135.18.058.163.028.336-.089.518-.066.102-.14.183-.223.243l.489.701c.067-.067.107-.154.12-.263.002-.017.002-.118.002-.302h.194l.01.21c0 .198-.075.366-.223.501zm-.814-1.716c-.08.042-.115.121-.103.236.01.088.044.183.1.283l.082.142c.08-.077.137-.167.17-.269.04-.126.032-.24-.024-.339-.053-.09-.127-.108-.225-.053zm-.27 1.35c-.077.15-.07.3.024.448.088.14.195.204.318.193.136-.011.268-.073.397-.186l-.51-.721c-.11.092-.187.181-.229.265zm-4.464-1.393h.406l.332 1.745h.007l.608-1.745h.23l.604 1.745h.007l.336-1.745h.336l-.453 2.293h-.385l-.602-1.648h-.007l-.575 1.648h-.388l-.456-2.293zm-1.46 0h1.34v.263h-.905v.704h.858v.262h-.858v.788h.934v.276h-1.369v-2.293zm-.825 2.293h.435v-2.293h-.435v2.293zm-2.112-2.293l.781 2.293h.449l.794-2.293h-.385l-.595 1.768h-.007l-.585-1.768h-.452zm-1.327 0h1.34v.263h-.905v.704h.858v.262h-.858v.788h.934v.276h-1.37v-2.293zm-1.374 1.047h.086c.078 0 .149-.006.213-.019.065-.012.12-.033.166-.064.047-.031.083-.073.11-.127.026-.053.04-.122.04-.206 0-.09-.015-.162-.045-.214-.03-.052-.07-.091-.118-.116-.049-.026-.105-.042-.17-.049-.064-.006-.13-.01-.196-.01h-.086v.805zm-.436-1.047h.522c.127 0 .248.006.365.02.116.013.218.04.306.083.09.042.16.102.213.181.054.079.08.183.08.314 0 .089-.015.164-.047.226-.03.062-.069.114-.116.154-.046.041-.098.074-.154.097-.057.023-.11.041-.161.054v.008c.084.015.152.04.204.075.052.034.093.075.123.122.03.048.053.102.07.161.016.06.032.123.044.19l.13.608h-.435l-.083-.432c-.02-.104-.041-.192-.063-.266-.023-.073-.05-.132-.085-.178-.035-.045-.078-.078-.132-.098-.053-.02-.122-.03-.209-.03h-.136v1.004h-.436v-2.293zm-2.715 0h1.34v.263h-.905v.704h.858v.262h-.858v.788h.934v.276h-1.37v-2.293zm-.257 2.187c-.074.029-.165.06-.275.092-.109.034-.234.05-.373.05-.182 0-.336-.033-.463-.098-.126-.067-.229-.157-.309-.27-.079-.113-.138-.244-.174-.393-.036-.148-.055-.303-.055-.465 0-.153.017-.298.048-.435.032-.137.086-.258.16-.363.074-.104.17-.187.29-.249.12-.062.267-.092.44-.092.272 0 .475.059.606.179.132.12.198.28.198.482h-.495c0-.044-.005-.093-.014-.145-.008-.052-.025-.1-.05-.144-.024-.045-.058-.081-.102-.11-.045-.029-.101-.043-.17-.043-.098 0-.176.03-.234.09-.06.059-.105.132-.137.219-.032.086-.053.179-.065.277-.01.1-.016.186-.016.261l.003.168c.002.067.01.14.022.216.012.077.03.152.056.228.026.075.062.143.108.204.047.061.105.111.175.15.07.039.156.058.258.058.073 0 .139-.009.199-.027.06-.018.114-.039.161-.063.048-.024.089-.049.125-.075l.083-.061v.36zm-3.671-2.187h.475l.888 1.702h.007v-1.702h.355v2.293h-.432l-.931-1.785h-.007v1.785h-.355v-2.293zm-1.514 1.4l.316-1.014h.007l.31 1.013h-.633zm.124-1.4l-.791 2.293h.385l.206-.651h.78l.2.651h.463l-.798-2.293h-.445zm-1.923 1.047h.087c.077 0 .149-.006.212-.019.065-.012.12-.033.167-.064.047-.031.083-.073.109-.127.027-.053.04-.122.04-.206 0-.09-.015-.162-.045-.214-.03-.052-.07-.091-.117-.116-.05-.026-.106-.042-.17-.049-.064-.006-.13-.01-.196-.01h-.087v.805zm-.435-1.047h.522c.126 0 .248.006.364.02.116.013.22.04.307.083.089.042.16.102.213.181.053.079.08.183.08.314 0 .089-.015.164-.047.226-.03.062-.07.114-.117.154-.045.041-.097.074-.154.097-.056.023-.11.041-.16.054v.008c.083.015.152.04.203.075.053.034.094.075.124.122.03.048.052.102.07.161.016.06.032.123.044.19l.13.608h-.436l-.082-.432c-.02-.104-.041-.192-.064-.266-.022-.073-.05-.132-.085-.178-.034-.045-.078-.078-.131-.098-.053-.02-.122-.03-.21-.03h-.136v1.004h-.435v-2.293zm-.364 1.512c0 .102-.008.203-.024.3-.017.1-.054.187-.111.264-.058.076-.142.138-.253.184-.11.046-.26.07-.446.07-.184 0-.33-.024-.44-.07-.11-.046-.193-.108-.25-.184-.056-.077-.093-.164-.109-.263-.017-.098-.025-.199-.025-.301v-1.512h.435v1.512c0 .09.005.173.014.246.008.073.027.136.056.188.029.052.068.092.118.121.05.029.117.044.201.044.089 0 .16-.015.212-.044.052-.029.091-.069.12-.121.027-.052.045-.115.054-.188.008-.073.013-.155.013-.246v-1.512h.435v1.512zm-2.041-1.13c-.02-.01-.052-.022-.095-.04-.043-.018-.094-.035-.152-.053-.057-.018-.12-.033-.186-.045-.066-.012-.132-.018-.199-.018-.093 0-.168.021-.226.065-.057.043-.086.1-.086.17 0 .076.027.14.083.195.055.055.124.106.207.155.083.048.173.097.27.146.096.049.186.105.269.168.083.063.152.137.208.22.055.085.083.186.083.303 0 .125-.023.23-.067.316-.044.087-.104.157-.18.211-.077.055-.169.094-.275.118-.107.025-.22.037-.342.037-.07 0-.137-.005-.201-.013l-.182-.03c-.055-.011-.104-.022-.146-.034-.042-.01-.073-.02-.093-.026v-.406c.044.027.093.055.146.085.053.03.109.056.168.08.058.023.12.043.185.058.064.015.128.023.193.023.035 0 .074-.004.115-.013.043-.009.082-.023.119-.045.036-.02.066-.05.09-.086.023-.037.034-.082.034-.135 0-.086-.026-.16-.08-.22-.053-.062-.12-.118-.2-.169-.081-.05-.17-.1-.263-.15-.094-.048-.182-.104-.263-.167-.08-.064-.148-.137-.201-.22-.053-.083-.08-.185-.08-.307 0-.186.068-.332.201-.436.134-.104.325-.155.574-.155.06 0 .119.002.179.008.06.005.115.01.167.018.05.006.096.013.134.02l.092.016v.356zm-3.335-.382h.475l.888 1.702h.006v-1.702h.355v2.293h-.431l-.931-1.785h-.007v1.785h-.355v-2.293zm-.83 2.293h.437v-2.293h-.436v2.293zm-3.14-2.293h.435v.96h.798v-.96h.435v2.293h-.435v-1.07h-.798v1.07h-.435v-2.293zm-1.134.263v2.03h.435v-2.03h.552v-.263h-1.54v.263h.553zm-1.746-.263h.435V21.6h.858v.276h-1.293v-2.293zm-1.514 1.4h.631l-.309-1.014h-.006l-.316 1.013zm.123-1.4h.446l.797 2.293h-.462l-.2-.651h-.78l-.207.651h-.385l.79-2.293zm-2.175 0h1.34v.263h-.904v.704h.857v.262h-.857v.788h.934v.276h-1.37v-2.293zm-2.055 0h.435v.96h.798v-.96h.436v2.293h-.436v-1.07h-.798v1.07h-.435v-2.293z" transform="translate(-940 -1184) translate(940 1184) translate(1)"/>
                    <g transform="translate(-940 -1184) translate(940 1184) translate(1) translate(0 .014)">
                        <mask id="n4my4msh2d" fill="#fff">
                            <use xlink:href="#ojt73b0mcc"/>
                        </mask>
                        <path fill="#7DCDF0" d="M2.917 17.582c.821-.703 1.903-1.09 2.524-1.563.393-.297.674-.566.674-1.025 0 .354-.2.596-.483.789-.624.425-1.93.405-2.544 1.44-.066.11-.122.23-.171.36m0-5.178c.821.703 1.903 1.091 2.524 1.563.393.297.674.565.674 1.025 0-.354-.2-.596-.483-.789-.624-.425-1.93-.405-2.544-1.44-.066-.11-.122-.23-.171-.36M.976 21.497c-.045.45-.025.906.062 1.346-.252.455-.476.91-.656 1.391-.07-.876.13-1.825.594-2.737m.883-2.232c-.512.676-.798 1.402-.883 2.232.21-.413.47-.805.754-1.179.001-.364.045-.719.13-1.053m1.057-1.682c-.088.228-.152.484-.19.757-.317.287-.614.592-.868.925.175-.683.502-1.207 1.058-1.682m0-5.177c-.556-.475-.883-1-1.058-1.683.254.333.551.64.867.925.039.274.103.53.19.758M1.86 10.722c-.084-.333-.128-.689-.129-1.052-.284-.375-.545-.768-.754-1.18.085.83.371 1.556.883 2.232M.976 8.49C.512 7.58.31 6.63.382 5.753c.18.482.404.937.656 1.391-.087.44-.107.897-.062 1.346m10.381 8.469c-.34-.738-.96-1.106-1.582-1.1-.623-.006-1.242.362-1.583 1.1.4-.686.991-1.03 1.583-1.03.59 0 1.182.344 1.582 1.03m-3.659 7.31c-.029.62-.09 1.183-.21 1.674.017-.346.025-.711.027-1.097.073-.18.134-.373.183-.577m.211-1.675c-.051.208-.113.406-.188.591 0 .376-.006.74-.023 1.084.123-.5.184-1.07.211-1.675m.21-1.671c-.023.583-.083 1.157-.21 1.671.016-.354.021-.712.016-1.067.078-.19.142-.393.194-.604m0 0c.168-.678.218-1.437.218-2.103 0-.313-.032-.62-.079-.93-.047-.31-.085-.616-.066-.931-.137.553-.119 1.097-.102 1.652.016.554.041 1.107.041 1.66 0 .217-.004.435-.012.652m-7.737 3.31c-.587 1.573-.53 2.943.4 3.923.883.929 2.55 1.506 3.915 1.5.455-.003.877-.07 1.224-.211 1.132-.459 1.477-1.698 1.567-3.502-.206.848-.585 1.476-1.262 1.785-1.29.586-3.666.02-4.884-1.274-.575-.61-.891-1.382-.96-2.22m0-18.48c.069-.84.385-1.611.96-2.221 1.218-1.294 3.593-1.86 4.884-1.274.677.309 1.056.936 1.262 1.785C7.398 2.24 7.053 1 5.92.542c-.347-.14-.769-.209-1.224-.21C3.332.324 1.665.901.782 1.83c-.93.98-.987 2.35-.4 3.923m7.316-.036c-.05-.204-.11-.397-.183-.576-.002-.386-.01-.752-.027-1.097.12.49.181 1.054.21 1.673m.211 1.675c-.027-.605-.088-1.175-.21-1.675.016.345.022.708.022 1.084.075.185.137.384.188.59m.21 1.672c-.052-.21-.116-.413-.194-.604.005-.354 0-.713-.016-1.067.127.514.187 1.088.21 1.671m0 0c.008.217.012.436.012.653 0 .553-.025 1.106-.041 1.659-.017.555-.035 1.1.102 1.653-.02-.315.02-.622.066-.931.047-.31.08-.618.08-.93 0-.667-.05-1.425-.22-2.104m3.24 3.965c-.342.738-.961 1.105-1.583 1.1-.623.005-1.242-.362-1.583-1.1.4.686.991 1.029 1.583 1.029.59 0 1.182-.343 1.582-1.03m.494-7.31c.029-.619.091-1.183.21-1.673-.016.345-.024.711-.026 1.097-.073.179-.134.372-.184.576m-.21 1.675c.05-.207.112-.406.187-.59 0-.377.007-.74.023-1.085-.123.5-.184 1.07-.21 1.675m-.21 1.671c.022-.583.082-1.157.21-1.671-.016.354-.022.713-.017 1.067-.078.19-.142.394-.194.604m0 0c-.168.679-.218 1.437-.218 2.103 0 .313.032.62.079.93.047.31.086.617.066.932.137-.554.119-1.098.102-1.653-.015-.553-.041-1.106-.041-1.66 0-.216.004-.435.012-.652m5.203 8.52c-.822-.704-1.904-1.092-2.525-1.564-.393-.297-.673-.566-.673-1.025 0 .354.199.596.482.789.624.425 1.93.405 2.544 1.44.066.11.123.23.172.36m0-.001c.087.228.152.484.19.757.316.287.613.592.867.925-.175-.683-.501-1.207-1.057-1.682m1.057 1.682c.512.676.798 1.402.883 2.232-.21-.413-.47-.805-.754-1.179-.001-.364-.044-.719-.129-1.053m.883 2.232c.045.45.025.906-.06 1.346.25.455.474.91.654 1.391.071-.876-.13-1.825-.594-2.737m.594 2.737c.587 1.573.531 2.943-.4 3.923-.883.929-2.55 1.506-3.915 1.5-.455-.003-.877-.07-1.224-.211-1.131-.459-1.477-1.698-1.566-3.502.205.848.584 1.476 1.262 1.785 1.29.586 3.665.02 4.883-1.274.575-.61.892-1.382.96-2.22m-7.316.035c.029.62.091 1.183.21 1.674-.016-.346-.024-.711-.026-1.097-.073-.18-.134-.373-.184-.577m-.21-1.675c.05.208.112.406.187.591 0 .376.007.74.023 1.084-.123-.5-.184-1.07-.21-1.675m-.21-1.671c.022.583.082 1.157.21 1.671-.016-.354-.022-.712-.017-1.067-.078-.19-.142-.393-.194-.604m0 0c-.168-.678-.218-1.437-.218-2.103 0-.313.032-.62.079-.93.047-.31.086-.616.066-.931.137.553.119 1.097.102 1.652-.015.554-.041 1.107-.041 1.66 0 .217.004.435.012.652m7.737-15.17c.587-1.572.531-2.943-.4-3.923-.883-.928-2.55-1.505-3.915-1.499-.455.002-.877.07-1.224.21-1.131.46-1.477 1.699-1.566 3.503.205-.849.584-1.476 1.262-1.785 1.29-.587 3.665-.02 4.883 1.274.575.61.892 1.382.96 2.22m-.594 2.737c.045-.449.025-.905-.06-1.346.25-.454.474-.91.654-1.39.071.876-.13 1.825-.594 2.736m-.883 2.232c.512-.676.798-1.401.883-2.232-.21.412-.47.805-.754 1.18-.001.363-.044.719-.129 1.052m-1.057 1.683c.087-.228.152-.484.19-.758.316-.286.613-.592.867-.925-.175.683-.501 1.208-1.057 1.683m0 0c-.822.703-1.904 1.091-2.525 1.563-.393.297-.673.565-.673 1.025 0-.354.199-.596.482-.789.624-.425 1.93-.405 2.544-1.44.066-.11.123-.23.172-.36" mask="url(#n4my4msh2d)"/>
                    </g>
                    <path fill="#41A7D0" d="M1.038 7.157c.14-.721.456-1.401.945-1.944C3.162 3.898 5.338 3.379 6.529 3.99c.462.236.775.643.986 1.164-.002-.386-.01-.751-.027-1.097-.206-.849-.585-1.476-1.263-1.785-1.29-.586-3.664-.02-4.883 1.274-.575.61-.891 1.382-.96 2.22.18.482.404.937.656 1.391m.692 2.526c-.001-.394.048-.796.145-1.185-.306-.45-.591-.9-.837-1.34-.087.44-.107.896-.063 1.346.21.412.47.805.755 1.18m.996 1.977c-.316-.287-.613-.593-.867-.925-.085-.334-.128-.69-.129-1.053.293.385.619.759.955 1.12-.012.294.003.584.041.858m0 0c.037.27.1.524.19.757.822.703 1.904 1.091 2.525 1.563.393.297.674.567.674 1.026 0-.547-.337-.847-.803-1.29-.633-.592-1.69-1.245-2.586-2.056m0 6.692c.037-.27.1-.524.19-.757.822-.703 1.904-1.092 2.525-1.563.393-.297.674-.567.674-1.026 0 .546-.337.847-.803 1.29-.633.592-1.69 1.246-2.586 2.056m0 0c-.038.273-.053.564-.04.858-.337.36-.663.734-.956 1.12.001-.364.044-.72.13-1.053.253-.333.55-.639.866-.925M1.73 20.33c-.284.374-.545.766-.755 1.178-.044.45-.024.907.063 1.347.246-.44.53-.89.837-1.34-.097-.39-.146-.792-.145-1.185m-.692 2.525c.14.722.456 1.402.945 1.945 1.179 1.314 3.355 1.834 4.546 1.222.462-.235.775-.642.986-1.164-.002.386-.01.752-.027 1.097-.206.85-.585 1.477-1.263 1.786-1.29.586-3.664.02-4.883-1.274-.575-.61-.891-1.382-.96-2.22.18-.482.404-.937.656-1.392m6.683.342c-.061.15-.13.289-.208.419.002.414.002.828.002 1.242.073-.178.134-.372.183-.575.017-.346.023-.709.023-1.086m.204-1.657c.005.355 0 .713-.016 1.067-.051.208-.114.406-.188.59 0-.407-.007-.814-.013-1.222.083-.134.155-.28.217-.435m.267-4.568c-.414 1.1-.277 2.89-.267 4.568.078-.19.142-.393.194-.604.008-.217.012-.435.012-.652 0-.554-.026-1.106-.041-1.66-.017-.555-.035-1.099.102-1.652m1.582-1.175c.79 0 1.336.514 1.583 1.175-.34-.738-.96-1.1-1.583-1.1-.622 0-1.241.362-1.582 1.1.247-.66.793-1.175 1.582-1.175m1.583 1.175c.137.553.119 1.097.103 1.653-.016.553-.042 1.105-.042 1.659 0 .217.004.435.012.652.052.21.116.414.194.604.01-1.677.147-3.468-.267-4.568m.267 4.568c.062.154.135.301.217.435-.006.408-.013.815-.013 1.222-.074-.184-.137-.382-.188-.59-.016-.354-.021-.712-.016-1.067m.204 1.657c0 .377.006.74.023 1.086.05.203.11.397.183.575 0-.414 0-.828.002-1.242-.078-.13-.147-.27-.208-.419m6.684-.342c.25.455.476.91.655 1.391-.068.839-.385 1.61-.96 2.22-1.218 1.294-3.593 1.86-4.883 1.275-.678-.31-1.057-.937-1.262-1.786-.018-.345-.026-.71-.028-1.097.211.522.524.929.986 1.164 1.191.612 3.368.092 4.546-1.222.489-.543.805-1.223.946-1.945m-.693-2.525c0 .393-.048.795-.145 1.184.307.451.591.9.838 1.341.086-.44.106-.897.061-1.347-.21-.412-.47-.804-.754-1.178m-.996-1.978c.316.286.613.592.867.925.085.334.128.69.129 1.053-.294-.386-.619-.76-.955-1.12.012-.294-.002-.585-.041-.858m0 0c-.038-.27-.1-.524-.19-.757-.822-.703-1.904-1.092-2.525-1.563-.393-.297-.674-.567-.674-1.026 0 .546.337.847.803 1.29.634.592 1.69 1.246 2.586 2.056m0-6.692c-.038.27-.1.524-.19.757-.822.703-1.904 1.091-2.525 1.563-.393.297-.674.567-.674 1.026 0-.547.337-.847.803-1.29.634-.592 1.69-1.245 2.586-2.056m0 0c.316-.287.613-.593.867-.925.085-.334.128-.69.129-1.053-.294.385-.619.759-.955 1.12.012.294-.002.584-.041.858m.996-1.978c0-.394-.048-.796-.145-1.185.307-.45.591-.9.838-1.34.086.44.106.896.061 1.346-.21.412-.47.805-.754 1.18m.693-2.527c.25-.454.476-.91.655-1.39-.068-.84-.385-1.61-.96-2.221-1.218-1.293-3.593-1.86-4.883-1.274-.678.309-1.057.936-1.262 1.785-.018.346-.026.711-.028 1.097.211-.521.524-.928.986-1.164 1.191-.611 3.368-.092 4.546 1.223.489.543.805 1.223.946 1.944m-10.79-.342c-.062-.149-.13-.289-.21-.418.003-.414.003-.829.003-1.243.073.18.134.372.183.577.017.344.023.707.023 1.084m.204 1.658c.005-.355 0-.714-.016-1.068-.051-.207-.114-.405-.188-.59 0 .408-.007.815-.013 1.222.083.135.155.281.217.436m.267 4.568c-.414-1.1-.277-2.891-.267-4.568.078.19.142.393.194.604.008.217.012.435.012.651 0 .554-.026 1.107-.041 1.66-.017.555-.035 1.1.102 1.653m3.165 0c.137-.553.119-1.098.103-1.653-.016-.553-.042-1.106-.042-1.66 0-.216.004-.434.012-.65.052-.212.116-.415.194-.605.01 1.677.147 3.468-.267 4.568m.267-4.568c.062-.155.135-.301.217-.436-.006-.407-.013-.814-.013-1.222-.074.185-.137.383-.188.59-.016.354-.021.713-.016 1.068m.204-1.658c0-.377.006-.74.023-1.084.05-.205.11-.398.183-.577 0 .414 0 .829.002 1.243-.078.13-.147.27-.208.418m-2.054 7.4c.79 0 1.336-.514 1.583-1.174-.34.738-.96 1.1-1.583 1.1-.622 0-1.241-.362-1.582-1.1.247.66.793 1.174 1.582 1.174" transform="translate(-940 -1184) translate(940 1184) translate(1)"/>
                    <path fill="#19719E" d="M11.357 13.04c-.247.661-.793 1.175-1.582 1.175-.79 0-1.336-.514-1.583-1.174.185.754.713 1.247 1.583 1.247.869 0 1.397-.493 1.582-1.247M1.875 8.498c-.307-.45-.591-.9-.838-1.34.141-.722.457-1.402.946-1.946C3.162 3.898 5.338 3.378 6.529 3.99c.462.236.775.643.986 1.164 0 .414 0 .829-.002 1.243-.176-.29-.398-.527-.679-.69-1.093-.634-3.07-.162-4.148 1.135-.388.47-.66 1.047-.81 1.656m.81 2.305c.013-.327.058-.66.137-.983-.325-.436-.647-.879-.948-1.322-.097.39-.146.791-.145 1.185.294.385.619.759.956 1.12m0 0c.92.983 1.911 1.896 2.544 2.594.392.434.885.901.885 1.61 0-.543-.337-.847-.802-1.291-.632-.588-1.69-1.244-2.587-2.055-.039-.274-.053-.564-.04-.858m0 8.408c-.013-.294.001-.585.04-.858.897-.81 1.955-1.467 2.587-2.056.465-.443.802-.747.802-1.29 0 .708-.493 1.176-.885 1.609-.633.699-1.624 1.611-2.544 2.595m0 0c-.337.36-.662.735-.956 1.12 0 .393.048.795.145 1.184.301-.442.623-.886.948-1.321-.079-.323-.124-.656-.137-.983m-.81 2.304c.15.61.422 1.187.81 1.657 1.077 1.297 3.055 1.77 4.148 1.135.281-.164.503-.4.679-.69.002.414.002.828.002 1.242-.211.522-.524.929-.986 1.165-1.19.61-3.367.091-4.546-1.223-.489-.543-.805-1.223-.946-1.945.247-.44.531-.89.838-1.34m5.638 2.1c.079-.13.147-.269.208-.418 0-.407-.006-.814-.013-1.222-.06.1-.126.193-.198.278-.002.454 0 .908.003 1.363m.679-6.644c-.414 1.1-.277 2.89-.267 4.567-.062.155-.134.302-.217.436-.03-1.882-.065-3.869.484-5.003m3.165 0c-.185-.754-.713-1.247-1.582-1.247-.87 0-1.398.493-1.583 1.247.247-.66.793-1.175 1.583-1.175.79 0 1.335.514 1.582 1.175m0 0c.55 1.134.514 3.121.484 5.003-.083-.134-.155-.28-.217-.436.01-1.676.147-3.467-.267-4.567m.68 6.644c.001-.455.004-.91.003-1.363-.073-.085-.138-.178-.2-.278-.005.408-.012.815-.012 1.222.061.15.13.289.209.419m5.637-2.102c.307.451.592.9.838 1.341-.141.722-.457 1.402-.946 1.945-1.179 1.314-3.355 1.834-4.546 1.223-.462-.236-.775-.643-.986-1.165 0-.414 0-.828.003-1.242.175.29.397.526.678.69 1.093.634 3.07.162 4.147-1.135.39-.47.661-1.048.812-1.657m-.81-2.304c-.014.327-.059.66-.138.983.325.435.647.879.948 1.321.097-.389.146-.79.145-1.184-.294-.385-.619-.76-.955-1.12m0 0c-.92-.984-1.912-1.896-2.544-2.595-.392-.433-.886-.901-.886-1.609 0 .543.337.847.803 1.29.631.589 1.69 1.245 2.586 2.056.039.273.053.564.04.858m0-8.408c-.919.983-1.911 1.896-2.543 2.594-.392.434-.886.901-.886 1.61 0-.543.337-.847.803-1.291.631-.588 1.69-1.244 2.586-2.055.039-.274.053-.564.04-.858m0 0c-.013-.327-.058-.66-.137-.983.325-.436.647-.879.948-1.322.097.39.146.791.145 1.185-.294.385-.619.759-.955 1.12m.81-2.305c.307-.45.592-.9.838-1.34-.141-.722-.457-1.402-.946-1.946-1.179-1.314-3.355-1.834-4.546-1.222-.462.236-.775.643-.986 1.164 0 .414 0 .829.003 1.243.175-.29.397-.527.678-.69 1.093-.634 3.07-.162 4.147 1.135.39.47.661 1.047.812 1.656m-5.637-2.1c.001.453.004.908.003 1.362-.073.085-.138.177-.2.277-.005-.407-.012-.814-.012-1.222.061-.149.13-.289.209-.418m-.68 6.644c.55-1.135.514-3.122.484-5.004-.083.135-.155.281-.217.436.01 1.677.147 3.468-.267 4.568m-3.165 0c-.549-1.135-.514-3.122-.484-5.004.083.135.155.281.217.436-.01 1.677-.147 3.468.267 4.568m-.68-6.644c-.001.454-.004.909-.002 1.363.072.085.137.177.198.277.007-.407.013-.814.013-1.222-.061-.149-.13-.289-.208-.418" transform="translate(-940 -1184) translate(940 1184) translate(1)"/>
                    <path fill="#001638" d="M9.775 14.36c.894 0 1.534-.52 1.582-1.32.596-1.019.635-2.734.663-3.794.012-.495.018-.99.02-1.486.109-.13.232-.245.37-.336.995-.658 2.776-.232 3.694 1.01.293.399.499.88.622 1.386-.9 1.203-1.824 2.343-2.414 3.23-.868 1.228-.877 1.502-.877 1.957 0 .455.009.728.877 1.956.59.888 1.515 2.027 2.414 3.23-.123.507-.329.988-.622 1.386-.918 1.243-2.7 1.668-3.693 1.01-.139-.09-.262-.205-.372-.335 0-.496-.007-.991-.019-1.487-.028-1.06-.067-2.774-.663-3.794-.048-.8-.688-1.32-1.582-1.32-.894 0-1.534.52-1.583 1.32-.596 1.02-.635 2.734-.663 3.794-.012.496-.018.991-.02 1.487-.109.13-.232.244-.37.336-.994.657-2.775.232-3.693-1.01-.294-.399-.5-.88-.623-1.386.9-1.204 1.824-2.343 2.414-3.231.868-1.228.878-1.501.878-1.956 0-.455-.01-.729-.878-1.956-.59-.888-1.514-2.028-2.414-3.231.123-.506.33-.987.623-1.385.918-1.243 2.699-1.669 3.692-1.011.139.091.262.206.372.336 0 .495.007.99.019 1.486.028 1.06.067 2.775.663 3.795.049.8.689 1.319 1.583 1.319" transform="translate(-940 -1184) translate(940 1184) translate(1)"/>
                    <path fill="#004E78" d="M8.192 16.972c.186-.753.713-1.246 1.582-1.246.87 0 1.398.493 1.583 1.247-.048-.8-.688-1.32-1.583-1.32-.893 0-1.533.52-1.582 1.32m0-3.931c.186.753.713 1.246 1.582 1.246.87 0 1.398-.494 1.583-1.247-.048.8-.688 1.319-1.583 1.319-.893 0-1.533-.52-1.582-1.318m3.842-6.64c.178-.295.4-.532.681-.695 1.093-.634 3.07-.162 4.148 1.135.388.47.66 1.047.81 1.656-.3.443-.622.886-.947 1.322-.123-.506-.33-.987-.623-1.385-.918-1.243-2.698-1.668-3.692-1.01-.139.09-.262.205-.371.335 0-.454-.001-.909-.006-1.358m-.193 1.635c.061-.1.126-.192.198-.277 0 .495-.006.991-.019 1.487-.028 1.058-.067 2.773-.662 3.792.548-1.135.513-3.12.483-5.002M7.515 6.402c-.178-.295-.4-.532-.68-.695-1.094-.634-3.072-.162-4.148 1.135-.39.47-.66 1.047-.812 1.656.302.443.623.886.948 1.322.124-.506.33-.987.622-1.385.918-1.243 2.7-1.668 3.693-1.01.139.09.262.205.372.335-.001-.454 0-.909.005-1.358m.193 1.635c-.06-.1-.126-.192-.198-.277 0 .495.007.991.019 1.487.028 1.058.067 2.773.662 3.792-.548-1.135-.513-3.12-.483-5.002M7.515 23.61c-.004-.449-.006-.903-.005-1.358-.11.131-.233.245-.372.337-.993.657-2.775.232-3.693-1.011-.293-.398-.498-.88-.622-1.385-.325.435-.646.879-.948 1.321.151.61.423 1.187.812 1.657 1.076 1.297 3.054 1.769 4.147 1.135.281-.164.503-.4.681-.696m.193-1.634c-.06.1-.126.192-.198.276 0-.495.007-.99.019-1.486.028-1.059.067-2.773.662-3.792-.548 1.134-.513 3.12-.483 5.002m4.326 1.634c.005-.449.007-.903.006-1.358.11.131.232.245.37.337.995.657 2.775.232 3.693-1.011.294-.398.5-.88.623-1.385.325.435.647.879.948 1.321-.15.61-.423 1.187-.811 1.657-1.078 1.297-3.055 1.769-4.148 1.135-.28-.164-.503-.4-.681-.696m-.193-1.634c.061.1.126.192.198.276 0-.495-.006-.99-.019-1.486-.028-1.059-.067-2.773-.662-3.792.548 1.134.513 3.12.483 5.002m-5.726-6.97c0-.709-.493-1.176-.885-1.61-.632-.698-1.625-1.61-2.544-2.595.013-.327.058-.659.137-.982.9 1.203 1.825 2.343 2.414 3.23.868 1.228.878 1.502.878 1.957m0 0c0 .708-.493 1.176-.885 1.61-.632.697-1.625 1.61-2.544 2.594.013.327.058.66.137.983.9-1.204 1.825-2.343 2.414-3.23.868-1.229.878-1.502.878-1.957m7.32 0c0-.709.493-1.176.885-1.61.632-.698 1.624-1.61 2.543-2.595-.013-.327-.058-.659-.137-.982-.9 1.203-1.824 2.343-2.414 3.23-.868 1.228-.878 1.502-.878 1.957m0 0c0 .708.494 1.176.886 1.61.632.697 1.624 1.61 2.543 2.594-.013.327-.058.66-.137.983-.9-1.204-1.824-2.343-2.414-3.23-.868-1.229-.878-1.502-.878-1.957" transform="translate(-940 -1184) translate(940 1184) translate(1)"/>
                </g>
            </g>
        </g>
    </g>
</svg>
