<svg xmlns="http://www.w3.org/2000/svg" xmlns:xlink="http://www.w3.org/1999/xlink" width="100" height="30" viewBox="0 0 100 30">
    <defs>
        <path id="sf8wil213a" d="M0 29.997L76.792 29.997 76.792 0 0 0z"/>
    </defs>
    <g fill="none" fill-rule="evenodd">
        <g>
            <g>
                <path fill="#FFF" fill-opacity=".1" d="M0 0H100V30H0z" transform="translate(-580 -1184) translate(580 1184)"/>
                <g transform="translate(-580 -1184) translate(580 1184) translate(12)">
                    <path fill="#E73830" d="M7.978 12.228c0-.342-.276-.618-.618-.618-.342 0-.618.276-.618.618 0 .34.276.617.618.618.342 0 .618-.277.618-.618M5.59 11.559c-.005-.51-.216-.96-1.096-.966-.875-.001-1.598.549-1.943.96l.463-2.325-.002.006c.02-.095.031-.179.031-.25-.006-.191-.067-.282-.396-.29-.448.006-.573.164-.64.472L.904 14.72H1.92l.328-1.649c.016-.047.033-.12.052-.216.069-.308.964-1.55 1.773-1.56h.01c.362 0 .462.25.46.48 0 .1-.017.2-.032.284l-.524 2.661h1.018l.54-2.744c.027-.137.045-.28.045-.418M14.921 10.592h-.009c-.389.004-.545.136-.616.289l-1.303 2.807-.26-2.828c-.026-.22-.116-.251-.215-.267h-.223c-.396.002-.524.207-.566.293l-1.3 2.802-.248-2.689c-.044-.364-.105-.396-.462-.406-.394.007-.473.15-.48.398 0 .035.002.07.006.11l.366 3.62h1.048l1.253-2.603.263 2.603h1.047l1.91-3.965v-.001l.016-.032c.008-.018.014-.038.014-.052 0-.026-.016-.075-.24-.079M16.488 12.376s.17-1.132 1.2-1.175l.048-.001c.238 0 .39.07.481.17.091.097.118.217.118.307v.035c-.018.285-.174.715-1.441.715h-.033c-.105 0-.218-.003-.338-.008l-.04-.002.005-.04zm-.089.554l.036.003s.214.017.517.017c.508.002 1.266-.052 1.643-.309.46-.31.638-.678.639-1.075 0-.033-.002-.066-.004-.1-.031-.421-.43-.87-1.434-.873-1.132.002-2.193.63-2.39 2.034-.025.18-.038.349-.037.505.004 1.052.543 1.589 1.657 1.65.069.003.134.004.197.004.193 0 .36-.014.503-.037l.043-.008c.195-.035.346-.087.462-.142.302-.132.494-.299.558-.36l-.42-.485c-.186.146-.425.235-.576.28-.12.028-.256.045-.424.045-.056 0-.116-.002-.18-.006-.429-.025-.808-.277-.804-.912 0-.061.003-.127.01-.195l.004-.036zM19.794 13.875l-.004.027c-.007.053-.012.105-.012.157.002.274.108.529.417.666.115.05.269.084.452.084.242 0 .535-.059.862-.215l-.134-.538c-.081.047-.262.142-.414.144-.058 0-.115-.015-.157-.058-.043-.042-.064-.107-.064-.194 0-.044.006-.095.018-.154l.843-4.5v-.008c0-.016.001-.033.005-.052.018-.094.03-.179.029-.25-.007-.192-.063-.282-.368-.29-.374.004-.503.132-.574.375l-.899 4.806zM22.271 13.86l-.006.042c-.008.053-.012.106-.012.158.001.274.109.528.417.665.115.05.268.084.452.084.241 0 .535-.059.862-.215l-.134-.538c-.081.047-.262.142-.414.144-.058 0-.115-.015-.157-.058-.043-.042-.065-.107-.065-.194 0-.045.006-.096.018-.154l.844-4.502c0-.017.001-.035.005-.058.017-.094.03-.179.03-.25-.008-.193-.064-.282-.37-.29-.373.004-.502.132-.573.374l-.897 4.792z"/>
                    <path fill="#94938A" d="M.911 27.88L1.295 27.88 2.166 29.551 2.172 29.551 2.172 27.88 2.454 27.88 2.454 29.956 2.093 29.956 1.199 28.249 1.194 28.249 1.194 29.956.911 29.956zM3.955 29.233c-.057 0-.113-.006-.17-.006-.144 0-.5.024-.5.292 0 .16.147.247.269.247.262 0 .4-.173.4-.4v-.133zm-.789-.687c.133-.083.292-.143.475-.143.413 0 .58.214.58.628v.628c0 .172.005.252.011.297h-.249v-.197h-.006c-.062.093-.203.233-.446.233-.311 0-.529-.143-.529-.473 0-.381.396-.5.67-.5.105 0 .178 0 .283.006 0-.262-.09-.396-.356-.396-.15 0-.311.06-.419.155l-.014-.238zM5.605 28.665h-.381v.83c0 .175.101.27.223.27.082 0 .141-.026.18-.053v.238c-.058.018-.14.042-.225.042-.274 0-.444-.138-.444-.44v-.887h-.325v-.226h.325v-.35l.266-.09v.44h.381v.226z"/>
                    <mask id="9lyirq574b" fill="#fff">
                        <use xlink:href="#sf8wil213a"/>
                    </mask>
                    <path fill="#94938A" d="M6.181 29.956h.888v-1.517H6.18v1.517zM6.125 28.1h1v-.315h-1v.315z" mask="url(#9lyirq574b)"/>
                    <path fill="#94938A" d="M7.702 29.766c.311 0 .45-.298.45-.569 0-.288-.167-.568-.45-.568-.285 0-.452.28-.452.568 0 .271.139.569.452.569m0-1.363c.439 0 .732.333.732.794 0 .435-.3.795-.732.795-.435 0-.735-.36-.735-.795 0-.46.294-.794.735-.794M8.96 28.439h.257v.24h.006c.079-.172.271-.276.472-.276.373 0 .54.244.54.652v.9h-.266v-.785c0-.353-.074-.526-.306-.54-.302 0-.438.255-.438.624v.702H8.96v-1.517zM11.713 29.233c-.057 0-.114-.006-.17-.006-.144 0-.5.024-.5.292 0 .16.147.247.268.247.263 0 .402-.173.402-.4v-.133zm-.789-.687c.133-.083.291-.143.475-.143.413 0 .58.214.58.628v.628c0 .172.005.252.01.297h-.248v-.197h-.006c-.062.093-.203.233-.446.233-.311 0-.53-.143-.53-.473 0-.381.397-.5.67-.5.106 0 .179 0 .284.006 0-.262-.09-.396-.357-.396-.15 0-.31.06-.418.155l-.014-.238zM12.631 29.956L12.897 29.956 12.897 27.725 12.631 27.725zM14.547 27.88L14.83 27.88 14.83 28.748 15.774 28.748 15.774 27.88 16.056 27.88 16.056 29.956 15.774 29.956 15.774 29.01 14.83 29.01 14.83 29.956 14.547 29.956zM17.65 29.052c0-.232-.13-.423-.359-.423-.26 0-.367.226-.387.423h.746zm.173.841c-.102.039-.218.098-.455.098-.512 0-.747-.327-.747-.82 0-.45.269-.768.676-.768.48 0 .636.369.636.857h-1.03c0 .3.224.506.476.506.175 0 .379-.096.444-.152v.28zM19.315 29.233c-.057 0-.113-.006-.17-.006-.144 0-.5.024-.5.292 0 .16.147.247.268.247.263 0 .402-.173.402-.4v-.133zm-.789-.687c.133-.083.291-.143.475-.143.413 0 .58.214.58.628v.628c0 .172.005.252.01.297h-.248v-.197h-.006c-.062.093-.203.233-.446.233-.311 0-.529-.143-.529-.473 0-.381.396-.5.67-.5.105 0 .178 0 .283.006 0-.262-.09-.396-.356-.396-.15 0-.311.06-.419.155l-.014-.238zM20.233 29.956L20.499 29.956 20.499 27.725 20.233 27.725zM21.92 28.665h-.381v.83c0 .175.101.27.223.27.082 0 .142-.026.181-.053v.238c-.06.018-.141.042-.226.042-.274 0-.444-.138-.444-.44v-.887h-.325v-.226h.325v-.35l.266-.09v.44h.381v.226zM22.423 27.725h.266v.931h.006c.096-.16.263-.253.463-.253.373 0 .54.244.54.652v.9h-.266v-.785c0-.353-.073-.526-.305-.54-.302 0-.438.255-.438.624v.702h-.266v-2.23zM25.3 29.956L25.583 29.956 25.583 27.88 25.3 27.88zM26.23 28.439h.257v.24h.006c.08-.172.271-.276.472-.276.373 0 .54.244.54.652v.9h-.266v-.785c0-.353-.073-.526-.305-.54-.303 0-.438.255-.438.624v.702h-.266v-1.517zM28.019 29.658c.105.072.255.108.33.108.122 0 .272-.054.272-.218 0-.276-.625-.253-.625-.678 0-.315.224-.467.51-.467.123 0 .225.027.33.06l-.023.244c-.06-.039-.217-.078-.28-.078-.135 0-.254.06-.254.185 0 .309.625.22.625.704 0 .325-.246.473-.503.473-.136 0-.275-.014-.396-.083l.014-.25zM30.67 29.956h-.257v-.241h-.006c-.08.172-.271.277-.472.277-.373 0-.54-.245-.54-.652v-.901h.266v.785c0 .354.073.526.305.542.303 0 .438-.256.438-.625v-.702h.266v1.517zM31.292 28.439h.248v.235h.006c.07-.158.223-.27.376-.27.08 0 .119.008.175.02v.25c-.048-.021-.102-.027-.147-.027-.237 0-.393.238-.393.619v.69h-.265v-1.517zM33.417 29.233c-.056 0-.113-.006-.17-.006-.144 0-.5.024-.5.292 0 .16.147.247.268.247.263 0 .402-.173.402-.4v-.133zm-.789-.687c.133-.083.291-.143.475-.143.413 0 .58.214.58.628v.628c0 .172.005.252.011.297h-.249v-.197h-.006c-.062.093-.203.233-.446.233-.311 0-.529-.143-.529-.473 0-.381.396-.5.67-.5.105 0 .178 0 .283.006 0-.262-.09-.396-.356-.396-.15 0-.311.06-.419.155l-.014-.238zM34.301 28.439h.257v.24h.006c.08-.172.271-.276.472-.276.373 0 .54.244.54.652v.9h-.266v-.785c0-.353-.073-.526-.305-.54-.302 0-.438.255-.438.624v.702h-.266v-1.517zM37.113 28.695c-.101-.045-.203-.066-.288-.066-.296 0-.463.28-.463.568 0 .271.138.568.48.568.09 0 .204-.03.286-.086l.02.25c-.11.053-.238.063-.334.063-.435 0-.735-.36-.735-.795 0-.46.294-.794.735-.794.107 0 .246.027.322.06l-.023.232zM38.555 29.052c0-.232-.13-.423-.36-.423-.26 0-.367.226-.387.423h.747zm.172.841c-.102.039-.218.098-.455.098-.511 0-.746-.327-.746-.82 0-.45.268-.768.675-.768.481 0 .636.369.636.857h-1.029c0 .3.224.506.475.506.176 0 .38-.096.444-.152v.28zM46.525 28.495l-.535 1.502h-.224l-.538-1.502h.254l.292.87c.055.164.088.275.099.334h.005c.015-.06.039-.142.074-.244l.328-.96h.245zM47.235 29.997h.888v-1.516h-.888v1.516zm-.056-1.856h1v-.315h-1v.315zM43.92 28.48h.248v.236h.005c.071-.158.224-.271.376-.271.08 0 .12.009.176.02v.25c-.049-.02-.102-.026-.147-.026-.238 0-.393.238-.393.618v.69h-.266V28.48zM42.993 29.057c0-.232-.13-.422-.36-.422-.26 0-.367.226-.386.422h.746zm.172.842c-.102.039-.217.098-.455.098-.511 0-.746-.327-.746-.82 0-.45.268-.768.676-.768.48 0 .636.369.636.857h-1.03c0 .3.224.505.476.505.175 0 .378-.095.443-.152v.28zM40.283 29.645c.142.096.395.095.499.095.165 0 .418-.015.418-.344 0-.375-.947-.343-.947-.92 0-.428.302-.634.69-.634.169 0 .307.037.449.081l-.03.232c-.081-.053-.296-.106-.38-.106-.185 0-.445.18-.445.35 0 .42.947.299.947.956 0 .44-.334.642-.683.642-.184 0-.372-.02-.537-.113l.019-.24z" mask="url(#9lyirq574b)"/>
                    <path fill="#94938A" d="M49.092 28.7c-.102-.044-.204-.065-.289-.065-.296 0-.463.28-.463.568 0 .27.138.568.48.568.09 0 .204-.03.286-.086l.02.25c-.11.053-.238.062-.334.062-.435 0-.735-.36-.735-.794 0-.46.294-.794.735-.794.107 0 .246.027.322.06l-.022.231zM50.533 29.057c0-.232-.13-.422-.36-.422-.26 0-.366.226-.386.422h.746zm.172.842c-.101.039-.217.098-.455.098-.511 0-.746-.327-.746-.82 0-.45.268-.768.675-.768.481 0 .636.369.636.857h-1.028c0 .3.223.505.475.505.175 0 .378-.095.443-.152v.28zM12.112 20.559h2.257v-3.137h-2.257v3.137zm3.659.195v-4.206h-5.06v4.206c0 .374.303.678.678.679h3.703c.375-.001.679-.305.679-.679zm1.388 2.352h1.403v-6.762h-1.403v6.762zm-1.578 1.849v-.01.01c-.873 0-1.568-.055-1.942-.162-.37-.101-.562-.28-.562-.522V22.65h-1.402v1.62c0 .235.032.791.513 1.12.501.354 2.494.463 3.346.462h.047c.808 0 2.311-.156 3.065-.34v-.896c-.353.08-1.59.338-3.065.339zM6.556 18.51c0 .6-.116 1.256-.183 1.443l1.292.005c.24-.424.29-1.205.292-1.448l.001-.023v-1.259c0-.375-.304-.68-.68-.68H.904v.875h5.653v1.088zm2.25 2.321v-.873H0v.873h3.793v1.357H.867v.873h5.665v2.626h1.403v-2.823c-.002-.373-.305-.675-.677-.676H5.195v-1.357h3.611zM42.83 21.293h-.003c-.343-.066-.474-.3-.474-.506l.001-.014v-1.584h3.856v1.597c.001.207-.131.442-.478.508-.307.05-.796.106-1.45.106-.654 0-1.144-.057-1.452-.107zm2.16 3v-2.035h.008l.067-.004c.59-.033 1.096-.108 1.654-.23.021-.005.046-.012.072-.017.741-.164.815-.634.822-.921v-4.537h-1.402v1.766h-3.857v-1.766h-1.402v4.537c.006.279.08.73.763.906.63.138 1.195.223 1.796.26l.076.004v2.037h-3.759v.875h8.909v-.875h-3.748zM25.354 24.955v-.01.01c-.872 0-1.567-.055-1.942-.162-.37-.101-.562-.28-.562-.522V22.65h-1.402v1.62c0 .235.032.791.513 1.12.502.354 2.495.463 3.347.462h.046c.809 0 2.312-.156 3.065-.341v-.895c-.352.08-1.59.338-3.065.339m-.27-5.551h1.849v3.702h1.402v-6.762h-1.402v2.187h-1.665c.011-.109.02-.22.023-.336l.002-.077h.004v-.89c-.001-.376-.304-.679-.68-.68H20.65v.874h3.24v.613c0 .859-.295 1.594-.86 2.111-.553.505-1.397.8-2.42.813v.874c.448-.001 1.57-.029 2.573-.458.8-.344 1.548-.931 1.9-1.971M52.527 20.78c-.726 0-1.264-.59-1.264-1.32 0-.727.535-1.318 1.264-1.318.72 0 1.263.591 1.263 1.319 0 .729-.534 1.319-1.263 1.319zm3.679-4.436v2.566h-1.092c-.112-.392-.342-.743-.667-1.02h.817v-.873h-2.049v-.877h-1.402v.877h-2.05v.873h.835c-.469.402-.74.957-.74 1.57 0 1.227 1.091 2.222 2.669 2.222 1.443 0 2.467-.826 2.64-1.899h1.039v1.827h1.402v-5.266h-1.402zm-3.98 8.007v-1.124h3.98V24.365c0 .214-.14.459-.512.514l-.013.004c-.3.047-.778.095-1.383.095-.614 0-1.258-.05-1.558-.098-.374-.055-.516-.3-.516-.515l.001-.014zm-1.404.31c.007.285.081.75.805.917.857.188 1.768.273 2.671.273.95 0 1.627-.075 2.384-.239.03-.01.064-.02.104-.03.742-.164.815-.633.822-.92v-2.309h-6.786v2.309zM34.625 25.248c-1.064 0-1.777-.58-1.777-1.293 0-.714.702-1.293 1.777-1.293 1.055 0 1.776.579 1.776 1.293s-.677 1.293-1.776 1.293zm0-3.49c-1.95 0-3.274.984-3.274 2.197s1.279 2.195 3.274 2.195c1.998 0 3.273-.982 3.273-2.195 0-1.213-1.319-2.196-3.273-2.196zm3.15-3.666v-1.748h-1.403v5.266h1.402v-2.644h1.244v-.874h-1.244zm-2.843.023l.002-.079h.004v-.808c-.001-.376-.304-.679-.68-.68h-3.967v.874h3.24v.535c0 .858-.296 1.555-.863 2.032-.553.465-1.396.717-2.417.73v.874h.16c.56 0 1.698-.036 2.662-.486.967-.456 1.8-1.308 1.859-2.992z" mask="url(#9lyirq574b)"/>
                    <path fill="#E73830" d="M68.292 12.938l-.023-.945c-3.678-.01-5.289-2.312-5.305-4.18-.013-1.433.971-2.95 2.605-2.965 1.378-.012 2.067 1.076 2.067 1.076s.576-1.107 2.104-1.12c1.09-.01 2.554.906 2.573 3.027.017 1.994-1.42 4.18-4.021 5.107M67.584 0c-4.99.044-9.104 3.696-9.062 8.404.02 2.349 1.23 4.75 3.389 6.335l-.561 2.709c10.53 3.039 15.482-4.616 15.442-9.185C76.75 3.606 72.664-.044 67.584 0" mask="url(#9lyirq574b)"/>
                    <path fill="#8F030A" d="M68.377 16.549l-.085-3.61c-1.589.566-3.61.664-6-.038l-.381 1.838c1.641 1.204 3.832 1.936 6.466 1.81" mask="url(#9lyirq574b)"/>
                </g>
            </g>
        </g>
    </g>
</svg>
