<svg xmlns="http://www.w3.org/2000/svg" width="100" height="31" viewBox="0 0 100 31">
    <g fill="none" fill-rule="evenodd">
        <g>
            <g>
                <path fill="#FFF" fill-opacity=".1" d="M0 0H100V30H0z" transform="translate(-700 -1184) translate(700 1184)"/>
                <g>
                    <path fill="#575756" d="M40.188 15.587h6.38v-2.544h-6.38v2.544zm8.773 3.754v1.333H37.808V19.34h4.815v-2.449h-3.917V9.956h1.483v1.782h6.378V9.956h1.496v6.936h-3.93v2.449h4.828zM59.151 9.439h1.51v7.766h-1.51v-3.55h-1.986v-1.319h1.986V9.439zm-8.188 11.888v-4.435h1.51v3.101h8.433v1.334h-9.943zm5.155-5.182h-1.51v-5.006H50.16V9.792h5.958v6.353zM65.011 13.07h6.38V11.97h-6.38v1.101zm7.876 4.611v3.917h-1.51V18.96h-8.134V17.68h9.644zm.897-2.285v1.293H62.631v-1.293h4.815v-1.06H63.53V9.588h1.482v1.128h6.38V9.59h1.496v4.746h-3.931v1.061h4.828zM84.294 21.572h1.51V9.439h-1.51v12.133zM75.29 11.52v-1.333h7.236v1.333H79.48l3.373 7.93-1.334.57-2.584-6.201-2.57 6.297-1.36-.571 3.386-8.025H75.29zM96.353 9.634v1.537h-6.38V9.634h-1.482v5.836h9.358V9.634h-1.496zm-6.38 4.516h6.38v-1.673h-6.38v1.673zm-2.38 2.952v1.333h4.815v3.128h1.51v-3.128h4.828v-1.333H87.593z" transform="translate(-700 -1184) translate(700 1184) translate(1)"/>
                    <g>
                        <path fill="#003863" d="M22.745 14.302c-2.56-1.739-5.836-1.03-7.556 1.586-1.437 2.185-3.605 2.456-4.446 2.456-2.736 0-4.61-1.926-5.165-3.918h-.001l-.015-.055c-.005-.023-.013-.045-.018-.068-.218-.831-.271-1.229-.271-2.112 0-4.765 4.887-10.069 11.928-10.069 7.21 0 11.334 5.488 12.398 8.539l-.054-.162C27.499 4.533 21.841.243 15.181.243 6.799.243.001 7.04.001 15.424c0 7.494 5.404 13.91 12.902 13.91 5.98 0 10-3.354 11.842-7.974 1.013-2.527.296-5.497-2-7.058" transform="translate(-700 -1184) translate(700 1184) translate(1) translate(0 .054)"/>
                        <path fill="#E3042E" d="M29.693 10.957c-.886-2.976-5.043-8.835-12.492-8.835-7.041 0-11.928 5.304-11.928 10.069 0 .884.053 1.281.271 2.112-.09-.363-.14-.728-.14-1.083 0-4.962 4.97-8.4 10.075-8.4 6.914 0 12.518 5.604 12.518 12.517 0 5.419-3.119 10.109-7.65 12.363l.002.003c5.84-2.115 10.012-7.709 10.012-14.279 0-1.555-.209-2.926-.668-4.467" transform="translate(-700 -1184) translate(700 1184) translate(1) translate(0 .054)"/>
                    </g>
                </g>
            </g>
        </g>
    </g>
</svg>
