<svg xmlns="http://www.w3.org/2000/svg" xmlns:xlink="http://www.w3.org/1999/xlink" width="75" height="75" viewBox="0 0 75 75">
    <defs>
        <path id="24kl241gva" d="M0.009 0L45.94 0 45.94 45.961 0.009 45.961z"/>
    </defs>
    <g fill="none" fill-rule="evenodd">
        <g>
            <g>
                <g transform="translate(-1151 -924) translate(1151 924)">
                    <mask id="osgbzqnlbb" fill="#fff">
                        <use xlink:href="#24kl241gva"/>
                    </mask>
                    <path fill="#00A0C8" d="M33.067 27.166c-1.136 2.666-3.235 4.765-5.9 5.9-1.4.569-2.798.831-4.197.831-.218 0-.437 0-.656-.043-4.064-.219-7.78-2.71-9.44-6.688-1.137-2.71-1.137-5.682 0-8.392 1.136-2.666 3.234-4.764 5.9-5.9 1.137-.481 2.317-.787 3.54-.83 1.661-.088 3.279.174 4.852.83 2.666 1.136 4.765 3.234 5.9 5.9 1.137 2.71 1.137 5.682 0 8.392zm9.135-1.573c.262-1.749.262-3.497 0-5.245l2.972-2.142c.7-.568.962-1.486.612-2.317l-1.661-4.065c-.35-.786-1.18-1.31-2.098-1.18l-3.628.569c-1.049-1.4-2.273-2.667-3.671-3.716l.524-3.584c.175-.874-.35-1.748-1.136-2.098L30.05.155c-.83-.35-1.748-.088-2.317.611l-2.141 2.972c-1.093-.174-2.186-.218-3.279-.174-.655 0-1.31.087-1.966.174L18.206.766c-.568-.7-1.486-.962-2.317-.612l-4.065 1.661c-.786.35-1.31 1.224-1.18 2.098l.569 3.628c-1.4 1.049-2.667 2.273-3.716 3.672l-3.584-.569c-.874-.13-1.748.394-2.098 1.18L.155 15.89c-.35.83-.088 1.748.611 2.316l2.972 2.142c-.262 1.748-.262 3.496 0 5.245L.766 27.734c-.7.569-.962 1.486-.612 2.317l1.661 4.065c.35.787 1.224 1.311 2.098 1.136l3.628-.524c1.049 1.398 2.273 2.666 3.672 3.715l-.569 3.584c-.13.874.394 1.748 1.18 2.098l4.066 1.66c.83.35 1.792.089 2.316-.611l2.142-2.972c.656.087 1.311.175 1.967.218 1.092 0 2.185-.043 3.278-.218l2.141 2.972c.394.48.962.787 1.574.787.262 0 .524-.087.743-.175l4.065-1.66c.787-.35 1.311-1.225 1.136-2.099l-.524-3.628c1.398-1.049 2.622-2.273 3.715-3.671l3.584.524c.918.175 1.748-.35 2.098-1.136l1.66-4.065c.35-.83.089-1.748-.611-2.317l-2.972-2.141z" mask="url(#osgbzqnlbb)"/>
                </g>
                <path fill="#8CCFDC" d="M51.208 62.142c-6.035 0-10.933-4.898-10.933-10.934 0-6.035 4.898-10.933 10.933-10.933 6.036 0 10.934 4.898 10.934 10.933 0 6.036-4.898 10.934-10.934 10.934zm22.348-15l-3.586-.876c-.437-1.705-1.093-3.323-1.968-4.854l1.881-3.105c.481-.788.35-1.75-.306-2.406l-3.062-3.061c-.656-.656-1.618-.787-2.405-.306l-3.105 1.88c-1.53-.875-3.149-1.53-4.855-1.968l-.874-3.586c-.219-.875-1.006-1.385-1.88-1.385h-4.374c-.875 0-1.662.51-1.88 1.385l-.875 3.586c-1.706.438-3.324 1.093-4.855 1.968l-3.105-1.88c-.787-.481-1.75-.35-2.406.306L32.84 35.9c-.656.656-.787 1.618-.306 2.406l1.88 3.105c-.874 1.53-1.53 3.149-1.967 4.854l-3.587.875c-.874.219-1.385 1.006-1.385 1.88v4.374c0 .875.51 1.662 1.385 1.88l3.587.875c.437 1.706 1.093 3.324 1.967 4.855l-1.88 3.105c-.481.787-.35 1.75.306 2.406l3.061 3.061c.657.656 1.619.787 2.406.306l3.105-1.88c1.53.874 3.149 1.53 4.855 1.967l.874 3.587c.219.874 1.006 1.443 1.88 1.443h4.374c.875 0 1.662-.569 1.88-1.443l.875-3.587c1.706-.437 3.324-1.093 4.855-1.968l3.105 1.88c.787.482 1.75.35 2.406-.305l3.061-3.061c.656-.657.787-1.619.306-2.406l-1.88-3.105c.874-1.53 1.53-3.15 1.967-4.855l3.587-.874C74.43 55.057 75 54.27 75 53.396v-4.374c0-.875-.569-1.662-1.444-1.88z" transform="translate(-1151 -924) translate(1151 924)"/>
            </g>
        </g>
    </g>
</svg>
